<svg xmlns="http://www.w3.org/2000/svg" xml:space="preserve" id="Layer_1" x="0" y="0" style="enable-background:new 0 0 198 48" version="1.1" viewBox="0 0 198 48"><style>.st1{fill:none}</style><path d="M187.7 1.4c0 8.3-6.7 15-15 15H70.6c-3.9 0-7.6 1.7-10 4.7L52 31.6c-2.8 3.5-7.1 5.5-11.6 5.5H0V48h198V0h-10.3v1.4z"/><path d="M185.7 0v1.4c0 .4 0 .9-.1 1.3-.1.9-.3 1.7-.5 2.5-.1.4-.3.8-.4 1.2-.3.8-.7 1.5-1.2 2.2-1.2 1.7-2.7 3.2-4.6 4.2-1.8 1-4 1.6-6.2 1.6H70.6c-1.1 0-2.2.1-3.3.4-1.1.2-2.1.6-3.1 1.1-.5.2-1 .5-1.4.8-.9.6-1.8 1.3-2.6 2-.4.4-.8.8-1.1 1.2l-8.6 10.4c-2.5 3-6.2 4.7-10 4.7H0v2h40.4c4.5 0 8.7-2 11.6-5.5l8.6-10.4c2.5-3 6.2-4.7 10-4.7h102.1c8.3 0 15-6.7 15-15V0h-2z" style="fill:#404833"/></svg>